<?xml version="1.0" encoding="UTF-8" standalone="no"?>
<svg
   xmlns:dc="http://purl.org/dc/elements/1.1/"
   xmlns:cc="http://creativecommons.org/ns#"
   xmlns:rdf="http://www.w3.org/1999/02/22-rdf-syntax-ns#"
   xmlns:svg="http://www.w3.org/2000/svg"
   xmlns="http://www.w3.org/2000/svg"
   id="SVGRoot"
   version="1.1"
   viewBox="0 0 1000 1000"
   height="1000px"
   width="1000px">
  <defs
     id="defs4518" />
  <metadata
     id="metadata4521">
    <rdf:RDF>
      <cc:Work
         rdf:about="">
        <dc:format>image/svg+xml</dc:format>
        <dc:type
           rdf:resource="http://purl.org/dc/dcmitype/StillImage" />
        <dc:title></dc:title>
      </cc:Work>
    </rdf:RDF>
  </metadata>
  <g
     style="display:inline"
     id="layer3">
    <path
       id="path5141-3"
       d="M 500,50 A 450,450 0 0 0 50,500 450,450 0 0 0 500,950 450,450 0 0 0 950.00001,500 450,450 0 0 0 500,50 Z m -0.99999,16 a 435.00001,435 0 0 1 435,435 435.00001,435 0 0 1 -435,435 A 435.00001,435 0 0 1 64,501 435.00001,435 0 0 1 499.00001,66 Z"
       style="opacity:1;fill:#000000;fill-opacity:1;stroke:none;stroke-width:1.99937022;stroke-linecap:butt;stroke-linejoin:round;stroke-miterlimit:100;stroke-dasharray:none;stroke-opacity:1;paint-order:stroke fill markers" />
    <path
       id="path5283-1"
       d="M 439.79883 55.519531 C 439.3169 55.523423 437.30839 55.775535 435.49023 56.029297 C 433.67208 56.283059 432.04084 56.537823 428.50781 56.960938 C 424.97478 57.384052 419.53972 57.977468 409.57227 60.150391 C 399.60481 62.323314 385.10385 66.075602 372.35547 69.6875 C 359.60709 73.299398 348.60811 76.770874 329.62695 84.609375 C 310.64579 92.447876 283.53761 104.71997 250.37695 129.04102 C 217.21629 153.36206 177.71394 189.86298 147.73438 227.32031 C 117.75481 264.77764 97.296287 303.19478 82.335938 344.60156 C 67.375588 386.00834 57.913878 430.40765 54.720703 469.83984 C 51.527528 509.27204 54.612646 543.85807 61.703125 580.6582 C 68.793604 617.45834 79.909475 656.71185 94.574219 689.5625 C 109.23896 722.41315 127.45328 748.86057 149.10352 775.9082 C 170.75375 802.95584 195.83959 830.6027 225.44336 853.65039 C 255.04713 876.69808 289.07921 895.10022 306.93555 904.34766 C 324.79188 913.59509 326.29701 913.59375 328.01172 913.59375 C 329.72643 913.59375 331.64726 913.59426 332.90234 912.95898 C 334.15742 912.32371 334.74338 911.05366 331.60742 909.27734 C 328.47146 907.50103 321.6139 905.21713 305.31836 891.00195 C 289.02282 876.78678 263.29036 850.64146 240.37109 819.13867 C 217.45183 787.63588 197.34791 750.77657 184.25 708.91992 C 171.15209 667.06328 165.06032 620.21196 165.90234 579.36133 C 166.74436 538.51069 174.51924 503.6657 183.84766 473.92578 C 193.17608 444.18587 204.05756 419.55595 216.91992 396.7832 C 229.78229 374.01046 244.61197 353.11458 256.08984 339.91211 C 267.56772 326.70964 275.6588 321.24131 280.1875 318.24609 C 284.7162 315.25088 285.66007 314.74271 286.5625 314.26367 C 287.46493 313.78463 288.32353 313.33561 284.87891 317.44922 C 281.43428 321.56283 273.71363 330.21171 266.04297 341.05664 C 258.3723 351.90157 250.77614 364.93127 243.48633 381.99219 C 236.19652 399.05311 229.15948 420.23619 225.375 442.25586 C 221.59052 464.27553 221.05802 487.13262 222.32227 509.32227 C 223.58651 531.51191 226.64786 553.03281 233.63477 576 C 240.62168 598.96719 251.53566 623.3811 261.44531 640.62305 C 271.35497 657.865 280.26153 667.93564 327.0918 715.45117 C 373.92207 762.96671 458.61455 847.86564 501.39844 891.22266 C 544.18232 934.57967 544.93621 936.27406 544.89453 937.88086 C 544.85285 939.48766 544.01678 941.01006 545.28906 942.32422 C 546.56135 943.63838 549.94084 944.74119 561.625 944.45508 C 573.30916 944.16896 593.29621 942.49392 624.22266 932.74023 C 655.1491 922.98655 697.01364 905.15571 733.20312 882.17773 C 769.39261 859.19976 799.90312 831.07813 824.85742 803.85156 C 849.81172 776.62499 869.20523 750.29796 886.11719 719.7207 C 903.02915 689.14344 917.45749 654.31784 927.27344 616.85938 C 937.08939 579.40091 942.29037 539.32636 942.46289 497.78906 C 942.63541 456.25176 937.77578 413.28459 924.59961 370.56055 C 911.42344 327.83651 889.89761 285.28894 865.70508 249.40039 C 841.51254 213.51184 814.58172 184.14609 786.02539 159.73438 C 757.46906 135.32266 727.24083 115.8337 707.31641 104.8457 C 687.39198 93.857702 677.68568 91.316193 672.33594 89.835938 C 666.9862 88.355682 665.97976 87.931734 665.3125 87.720703 C 664.64524 87.509672 664.31133 87.51038 663.85156 87.890625 C 663.3918 88.27087 662.80529 89.032818 664.22656 90.683594 C 665.64784 92.334369 669.07803 94.87277 681.78906 105.66211 C 694.50009 116.45145 716.49318 135.49004 735.65625 155.96484 C 754.81932 176.43965 771.15328 198.35135 786.47461 228.51367 C 801.79594 258.676 816.14359 297.19652 824.81641 337.23438 C 833.48922 377.27223 836.56471 419.03898 831.1543 462.68945 C 825.74389 506.33993 811.84727 551.87746 792.95508 589.39453 C 774.06288 626.9116 750.13889 656.45443 735.58008 672.88867 C 721.02126 689.32292 715.73549 692.74928 712.82031 694.44727 C 709.90514 696.14525 709.31344 696.14541 714.36914 689.17383 C 719.42484 682.20225 730.15603 668.22318 740.3125 648.91406 C 750.46897 629.60494 760.07951 604.96584 765.68164 582.49023 C 771.28377 560.01462 772.82538 539.79692 773.35547 522.74023 C 773.88556 505.68354 773.41256 491.68079 771.22461 474.05859 C 769.03666 456.4364 765.1336 435.19522 756.4707 412.63672 C 747.8078 390.07822 734.38503 366.20232 724.48047 350.91406 C 714.5759 335.6258 708.18883 328.92516 661.06055 281.20508 C 613.93226 233.485 526.06211 144.74616 482.12695 100.37695 L 438.19141 56.007812 C 439.23636 55.761183 440.28076 55.515639 439.79883 55.519531 z M 500 342.5 A 157.5 157.5 0 0 1 657.5 500 A 157.5 157.5 0 0 1 500 657.5 A 157.5 157.5 0 0 1 342.5 500 A 157.5 157.5 0 0 1 500 342.5 z "
       style="display:inline;fill:#000000;fill-opacity:1;stroke:none;stroke-width:1.00000107px;stroke-linecap:butt;stroke-linejoin:miter;stroke-opacity:1" />
  </g>
</svg>
